<svg width="10" height="10" viewBox="0 0 10 10" fill="none" xmlns="http://www.w3.org/2000/svg">
<path d="M4.99743 9.99825C4.00905 9.99825 3.0428 9.70506 2.22099 9.15574C1.39918 8.60643 0.758703 7.82568 0.380465 6.91221C0.00222782 5.99874 -0.0968207 4.99358 0.0960031 4.02385C0.288827 3.05411 0.764781 2.16335 1.46367 1.46421C2.16256 0.765074 3.05297 0.288951 4.02237 0.0960583C4.99176 -0.096834 5.99658 0.0021681 6.90972 0.38054C7.82287 0.758912 8.60336 1.39966 9.15247 2.22176C9.70159 3.04386 9.99477 4.01039 9.99477 4.99913C9.993 6.32443 9.46587 7.59495 8.52907 8.53209C7.59227 9.46922 6.32227 9.99648 4.99743 9.99825Z" fill="url(#paint0_radial_896_342)"/>
<defs>
<radialGradient id="paint0_radial_896_342" cx="0" cy="0" r="1" gradientUnits="userSpaceOnUse" gradientTransform="translate(4.47627 3.78276) scale(7.75663 7.75933)">
<stop stop-color="#1E6289"/>
<stop offset="0.44" stop-color="#1B363B"/>
<stop offset="0.85" stop-color="#1B363B"/>
</radialGradient>
</defs>
</svg>
