<svg width="290" height="475" viewBox="0 0 358 475" fill="none" xmlns="http://www.w3.org/2000/svg">
<path d="M307.103 0.507929L55.1913 0C40.6932 0.0159211 26.7935 5.78437 16.5418 16.0397C6.29015 26.2951 0.523673 40.1997 0.507758 54.703L0 678.304C0.0159162 691.679 5.33487 704.502 14.7899 713.959C24.2449 723.416 37.0639 728.735 50.4344 728.749L302.58 728.248C309.168 728.277 315.695 726.986 321.776 724.451C327.857 721.917 333.37 718.19 337.989 713.491C347.37 703.981 352.598 691.137 352.526 677.776L357.551 50.9536C357.535 37.576 352.214 24.7512 342.756 15.2936C333.298 5.83611 320.476 0.518541 307.103 0.507929ZM344.964 677.776C345.029 689.152 340.582 700.09 332.597 708.191C328.681 712.176 324.006 715.335 318.85 717.484C313.693 719.633 308.159 720.727 302.573 720.703L50.4145 721.211C39.045 721.195 28.1459 716.669 20.1077 708.625C12.0696 700.581 7.54849 689.677 7.53612 678.304L8.03719 54.7097C8.05134 42.2041 13.0242 30.2149 21.8644 21.3728C30.7046 12.5307 42.6902 7.55785 55.1913 7.54546L87.8144 7.6123C90.0569 7.61354 92.2421 8.32024 94.061 9.63239C95.8798 10.9445 97.2401 12.7957 97.9493 14.9239L101.136 24.4342C101.958 26.8853 103.529 29.0162 105.627 30.5261C107.724 32.0359 110.243 32.8483 112.828 32.8485H246.219C248.769 32.8483 251.255 32.0577 253.337 30.5856C255.419 29.1134 256.994 27.0321 257.844 24.628L261.185 15.1243C261.921 13.0296 263.292 11.2162 265.106 9.93591C266.919 8.65564 269.086 7.972 271.306 7.97989L307.069 8.04671C318.438 8.05554 329.339 12.5739 337.382 20.611C345.424 28.6481 349.953 39.5479 349.974 50.9202L344.964 677.776Z" fill="#191919"/>
</svg>
